<svg xmlns="http://www.w3.org/2000/svg" width="50" height="36.938" viewBox="0 0 50 36.938"><path d="M-233.155-273.467h-43.692A3.121,3.121,0,0,0-280-270.378v30.693a3.154,3.154,0,0,0,3.153,3.154h43.692a3.122,3.122,0,0,0,3.153-3.09c0-.021,0-.042,0-.064v-30.629a3.057,3.057,0,0,0-2.96-3.153C-233.026-273.469-233.091-273.469-233.155-273.467Zm-32.881,29.278a.932.932,0,0,1-.9.9h-7.207a.932.932,0,0,1-.9-.9v-.9a.932.932,0,0,1,.9-.9h7.657c.475,0,.451.426.451.9Zm10.36,0a.973.973,0,0,1-.9.9h-7.658c-.474,0-.45-.426-.45-.9v-.9c0-.475-.024-.9.45-.9h7.658a1.019,1.019,0,0,1,.9.9Zm10.36,0a.932.932,0,0,1-.9.9h-7.658a1.016,1.016,0,0,1-.9-.9v-.9a.973.973,0,0,1,.9-.9h7.658a.932.932,0,0,1,.9.9Zm9.909,0a.932.932,0,0,1-.9.9h-7.207a.931.931,0,0,1-.9-.9v-.9a.932.932,0,0,1,.9-.9h7.207a.932.932,0,0,1,.9.9Zm0-17.567a.9.9,0,0,1-.892.9h-11.72a.864.864,0,0,1-.9-.826q0-.037,0-.075v-4.054a.814.814,0,0,1,.716-.9.819.819,0,0,1,.185,0h11.711a.838.838,0,0,1,.9.769.728.728,0,0,1,0,.132Z" transform="translate(280 273.469)"/></svg>